<svg version="1.2" xmlns="http://www.w3.org/2000/svg" xmlns:xlink="http://www.w3.org/1999/xlink" overflow="visible" preserveAspectRatio="none" viewBox="0 0 450 514" xml:space="preserve" y="0px" x="0px" id="Layer_1_1571993987948" width="17.5" height="20"><g transform="translate(1, 1)"><style type="text/css">
	.st0_1571993987948{fill:#394042;}
</style><path d="M400,64h-48V12c0-6.6-5.4-12-12-12h-8c-6.6,0-12,5.4-12,12v52H128V12c0-6.6-5.4-12-12-12h-8  c-6.6,0-12,5.4-12,12v52H48C21.5,64,0,85.5,0,112v352c0,26.5,21.5,48,48,48h352c26.5,0,48-21.5,48-48V112C448,85.5,426.5,64,400,64z   M48,96h352c8.8,0,16,7.2,16,16v48H32v-48C32,103.2,39.2,96,48,96z M400,480H48c-8.8,0-16-7.2-16-16V192h384v272  C416,472.8,408.8,480,400,480z" class="st0_1571993987948" vector-effect="non-scaling-stroke" style="fill: rgb(115, 115, 148);"/></g></svg>