<svg version="1.2" xmlns="http://www.w3.org/2000/svg" xmlns:xlink="http://www.w3.org/1999/xlink" overflow="visible" preserveAspectRatio="none" viewBox="0 0 516 516" height="22" width="22" id="Layer_1_1620302945708" x="0px" y="0px" xml:space="preserve"><g transform="translate(1, 1)"><g transform="translate(1, 1)"><style type="text/css">
	.st0_1620302945708{fill:#394042;}
</style><g>
	<path class="st0_1620302945708" d="M385.5,230.5c-24,0-46.4,6.7-65.5,18.3v-11.5L502.6,54.6C522.7,34.5,508.5,0,480,0H32   C3.6,0-10.7,34.5,9.4,54.6L192,237.3V424c0,9.2,4,18,10.9,24.1l64,56c20.4,17.9,53.1,3.7,53.1-24.1v-14.7   c19.1,11.6,41.5,18.3,65.5,18.3c69.9,0,126.5-56.6,126.5-126.5S455.4,230.5,385.5,230.5z M224,424V224L32,32h448L288,224v52.4   c-18.1,21.9-29,50-29,80.6c0,30.6,10.9,58.7,29,80.6V480L224,424z M385.5,454.5c-53.8,0-97.5-43.7-97.5-97.5   c0-53.8,43.7-97.5,97.5-97.5S483,303.2,483,357C483,410.8,439.3,454.5,385.5,454.5z" vector-effect="non-scaling-stroke" style="fill: rgb(115, 115, 148);"/>
	<path class="st0_1620302945708" d="M436.2,312.8l-6.6-6.6c-3.6-3.6-9.5-3.6-13.2,0l-31,31l-31-31c-3.6-3.6-9.5-3.6-13.2,0l-6.6,6.6   c-3.6,3.6-3.6,9.5,0,13.2l31,31l-31,31c-3.6,3.6-3.6,9.5,0,13.2l6.6,6.6c3.6,3.6,9.5,3.6,13.2,0l31-31l31,31   c1.8,1.8,4.2,2.7,6.6,2.7s4.8-0.9,6.6-2.7l6.6-6.6c3.6-3.6,3.6-9.5,0-13.2l-31-31l31-31C439.9,322.4,439.9,316.5,436.2,312.8z" vector-effect="non-scaling-stroke" style="fill: rgb(115, 115, 148);"/>
</g></g></g></svg>