<svg version="1.2" xmlns="http://www.w3.org/2000/svg" xmlns:xlink="http://www.w3.org/1999/xlink" overflow="visible" preserveAspectRatio="none" viewBox="0 0 514 514" xml:space="preserve" y="0px" x="0px" id="Layer_1_1574852472151" width="28" height="28"><g transform="translate(1, 1)"><style type="text/css">
	.st0_1574852472151{fill:#394042;}
</style><path d="M448,0H64C28.7,0,0,28.7,0,64v288c0,35.3,28.7,64,64,64h96v84c0,7.1,5.8,12,12,12c2.4,0,4.9-0.7,7.1-2.4  L304,416h144c35.3,0,64-28.7,64-64V64C512,28.7,483.3,0,448,0z M480,352c0,17.6-14.4,32-32,32H293.3l-8.5,6.4L192,460v-76H64  c-17.6,0-32-14.4-32-32V64c0-17.6,14.4-32,32-32h384c17.6,0,32,14.4,32,32V352z M280,240H136c-4.4,0-8,3.6-8,8v16c0,4.4,3.6,8,8,8  h144c4.4,0,8-3.6,8-8v-16C288,243.6,284.4,240,280,240z M376,144H136c-4.4,0-8,3.6-8,8v16c0,4.4,3.6,8,8,8h240c4.4,0,8-3.6,8-8v-16  C384,147.6,380.4,144,376,144z" class="st0_1574852472151" vector-effect="non-scaling-stroke" style="fill: rgb(115, 115, 148);"/></g></svg>