<svg version="1.2" xmlns="http://www.w3.org/2000/svg" xmlns:xlink="http://www.w3.org/1999/xlink" overflow="visible" preserveAspectRatio="none" viewBox="0 0 649.72998046875 290.95001220703125" id="Layer_1_1582299698844" width="90" height="40"><g transform="translate(1, 1)"><defs><style>.cls-1_1582299698844{fill:#56e7ce;}.cls-2_1582299698844{fill:#454560;}.cls-3_1582299698844{fill:#6f708b;}</style></defs><path d="M8.84,52.23A8.85,8.85,0,0,1,2.6,37.11,128.26,128.26,0,0,1,85,0a8.85,8.85,0,0,1,1.13,17.66,110.64,110.64,0,0,0-71,32,8.87,8.87,0,0,1-6.24,2.56" class="cls-1_1582299698844" vector-effect="non-scaling-stroke"/><path d="M32.41,75.59a8.85,8.85,0,0,1-6.22-15.16A95.32,95.32,0,0,1,84.71,33.3a8.86,8.86,0,0,1,1.55,17.64A77.75,77.75,0,0,0,38.62,73a8.77,8.77,0,0,1-6.21,2.57" class="cls-1_1582299698844" vector-effect="non-scaling-stroke"/><path d="M363.23,152.33A36.84,36.84,0,0,1,352,159.7a35.25,35.25,0,0,1-45.83-18.84,34,34,0,0,1-2.73-13.58A35.16,35.16,0,0,1,352,94.64a41.39,41.39,0,0,1,11.18,6.92,8.9,8.9,0,0,0,12.29.31A7.77,7.77,0,0,0,378.23,96,11.21,11.21,0,0,0,375,89.46a35.9,35.9,0,0,0-8-7.06A59.74,59.74,0,0,0,355,76.34a46.08,46.08,0,0,0-16-2.68h0a58.2,58.2,0,0,0-21.19,4.71,54.87,54.87,0,0,0-17,11.44,52.63,52.63,0,0,0-11.23,16.77,52,52,0,0,0-4.1,20.63,53.18,53.18,0,0,0,4.19,21.19,52.12,52.12,0,0,0,11.49,16.77,55.17,55.17,0,0,0,66.76,6.8,30,30,0,0,0,7.91-7.06,11.77,11.77,0,0,0,2.92-6.43,8.4,8.4,0,0,0-2.85-6.41,9.16,9.16,0,0,0-12.57.17" class="cls-2_1582299698844" vector-effect="non-scaling-stroke"/><path d="M477,89.37a55.2,55.2,0,0,0-16.81-11.54,52.88,52.88,0,0,0-58.49,11.3,54.91,54.91,0,0,0-11.12,59.06A51.32,51.32,0,0,0,402.06,165a53.17,53.17,0,0,0,37.44,15A44.48,44.48,0,0,0,461.87,174a69.58,69.58,0,0,0,12.9-9.42v6.64a9,9,0,1,0,18.08,0V127.07a51,51,0,0,0-4.3-20.77A55.82,55.82,0,0,0,477,89.37M474.77,127a39.37,39.37,0,0,1-3.25,14.13,35.05,35.05,0,0,1-45.61,18.44,36.37,36.37,0,0,1-11.19-7.56,35.42,35.42,0,0,1-7.53-11.19,34,34,0,0,1-2.73-13.58,35.33,35.33,0,0,1,10.26-25,36,36,0,0,1,11.19-7.55A34.28,34.28,0,0,1,439.5,92a35.15,35.15,0,0,1,35.29,35.23" class="cls-2_1582299698844" vector-effect="non-scaling-stroke"/><path d="M259.71,43.59a9.19,9.19,0,0,0-12.83,0,8.76,8.76,0,0,0-2.62,6.4V89.13a74.24,74.24,0,0,0-12.81-9.25,48.31,48.31,0,0,0-22.67-6.34,48.92,48.92,0,0,0-20.25,4.34,55.58,55.58,0,0,0-28.38,28.46,52.09,52.09,0,0,0-.12,41.21,55.4,55.4,0,0,0,11.35,16.81,52.75,52.75,0,0,0,16.86,11.5,54.91,54.91,0,0,0,41.45.21,53.31,53.31,0,0,0,14.57-8.83v4a9,9,0,1,0,18.06.92,7.06,7.06,0,0,0,0-.92V50a8.75,8.75,0,0,0-2.61-6.4m-15.45,83.48a34.43,34.43,0,0,1-2.73,13.58,35.28,35.28,0,0,1-65,.1,34.13,34.13,0,0,1-2.73-13.59,35,35,0,0,1,2.73-13.7,35.34,35.34,0,0,1,7.56-11.28,35.75,35.75,0,0,1,11.26-7.56,35,35,0,0,1,13.73-2.73,34,34,0,0,1,24.23,10,36,36,0,0,1,7.56,11.18,40.58,40.58,0,0,1,3.27,14.13" class="cls-3_1582299698844" vector-effect="non-scaling-stroke"/><path d="M142.09,105.94a58,58,0,0,0-11.63-16.79A54.65,54.65,0,0,0,113.6,77.71a49.43,49.43,0,0,0-20.09-4.19h0a58.2,58.2,0,0,0-21.19,4.71A55.46,55.46,0,0,0,55.37,89.67a53.21,53.21,0,0,0-11.26,16.77,55,55,0,0,0,.12,41.82A51.66,51.66,0,0,0,55.72,165a53.29,53.29,0,0,0,37.44,15,60.08,60.08,0,0,0,21-3.41A42.1,42.1,0,0,0,130.6,165a9.05,9.05,0,1,0-12.79-12.81,36.86,36.86,0,0,1-11.2,7.37,35.44,35.44,0,0,1-44.16-15.12c-.26-.44-.44-.91-.68-1.39h-.19a34.55,34.55,0,0,1-1.32-28.25h0a34.88,34.88,0,0,1,2.48-5.42,33.22,33.22,0,0,1,7.6-9.09,38.48,38.48,0,0,1,10.43-6.1,34.69,34.69,0,0,1,24.42,0,38.33,38.33,0,0,1,10.43,6.1A35.65,35.65,0,0,1,127,117.76H82.21a9,9,0,0,0,0,18.07h55.27a9.44,9.44,0,0,0,6-2.36,8.3,8.3,0,0,0,3-6.8,49.24,49.24,0,0,0-4.43-20.7" class="cls-3_1582299698844" vector-effect="non-scaling-stroke"/><path d="M547.08,179.81c-17.07,0-35.06-7.77-42.38-24.2a8.87,8.87,0,0,1,16.18-7.26c5.41,12.11,23.54,16.23,36.24,12.34,8.28-2.49,11.91-7.2,10.78-13.94-1.72-10.22-9.07-12.05-26.66-14.13-15.07-1.69-35.69-4.05-38.75-26.16-1.84-13.21,5.27-24.3,19-29.69,18.27-7.07,46.41-2.85,60,16.6A8.85,8.85,0,1,1,567,103.49c-8.24-11.77-27.15-14.88-39-10.24-9,3.53-8.22,9-8,10.79,1,7.37,6.14,9.06,23.22,11,16,1.84,38,4.31,42.12,28.71,2.64,15.75-6.21,28.73-23.12,33.84a52.64,52.64,0,0,1-15.12,2.16" class="cls-2_1582299698844" vector-effect="non-scaling-stroke"/><path d="M627.15,135.71V91.16h11.46a8.85,8.85,0,0,0,6.45-2.62,9.07,9.07,0,0,0,0-12.82h0a8.89,8.89,0,0,0-6.45-2.62H627.15V50a8.84,8.84,0,0,0-2.62-6.4,9.19,9.19,0,0,0-12.83,0,8.8,8.8,0,0,0-2.64,6.4v23.1H597.73a9,9,0,0,0-6.38,15.45,8.89,8.89,0,0,0,6.46,2.62h11.46v62c0,16.49,9.42,26.59,24.33,26.59a8.86,8.86,0,0,0,0-17.71c-3.11,0-6.6,0-6.6-8.88V135.8" class="cls-2_1582299698844" vector-effect="non-scaling-stroke"/><path d="M362.58,249.71V228.56h5.75a4.57,4.57,0,0,0,4.59-4.79,4.15,4.15,0,0,0-1.28-2.88l-.08-.08a4.45,4.45,0,0,0-3.23-1.32h-5.75V207.9a4.5,4.5,0,0,0-1.31-3.22,4.61,4.61,0,0,0-6.44,0,4.42,4.42,0,0,0-1.32,3.22v11.59h-3.79a4.48,4.48,0,0,0-4.29,2.94,4.89,4.89,0,0,0,.95,4.82,3.84,3.84,0,0,0,2.93,1.31h5.21V259.7c0,7.92,3.92,12.91,10.2,13.32a4.48,4.48,0,0,0,4.81-3.59,4.34,4.34,0,0,0-4-5.27c-1.41,0-3,0-3-4.46v-10" class="cls-3_1582299698844" vector-effect="non-scaling-stroke"/><path d="M576.25,259a18.86,18.86,0,0,1-5.65,3.72,17.79,17.79,0,0,1-23.12-9.51,17.32,17.32,0,0,1-1.38-6.85,17.66,17.66,0,0,1,1.38-6.92,17.89,17.89,0,0,1,3.81-5.69,17.67,17.67,0,0,1,19.31-3.86,21,21,0,0,1,5.64,3.5,4.49,4.49,0,0,0,6.2.15,4,4,0,0,0,1.38-3,5.66,5.66,0,0,0-1.62-3.29,18.06,18.06,0,0,0-4-3.56,29.87,29.87,0,0,0-6.08-3.06A23.42,23.42,0,0,0,564,219.3h0a29.17,29.17,0,0,0-10.69,2.38,27.62,27.62,0,0,0-8.55,5.77A26.55,26.55,0,0,0,537,246.31,26.88,26.88,0,0,0,539.13,257a26.21,26.21,0,0,0,5.8,8.46,27.81,27.81,0,0,0,33.67,3.43,14.91,14.91,0,0,0,4-3.56,6,6,0,0,0,1.48-3.24,4.23,4.23,0,0,0-1.44-3.23,4.62,4.62,0,0,0-6.34.08" class="cls-3_1582299698844" vector-effect="non-scaling-stroke"/><path d="M518,227.44a27.77,27.77,0,0,0-8.43-5.78,26.49,26.49,0,0,0-29.31,5.67,27.51,27.51,0,0,0-5.58,29.6,26,26,0,0,0,5.76,8.4,26.71,26.71,0,0,0,18.77,7.52,22.27,22.27,0,0,0,11.21-3,35.33,35.33,0,0,0,6.47-4.73v3.1A4.69,4.69,0,0,0,521,273a4.54,4.54,0,0,0,4.95-4.5V246.34a25.72,25.72,0,0,0-2.16-10.41,28.22,28.22,0,0,0-5.8-8.49m-1.79,18.93a19.89,19.89,0,0,1-1.64,7.12,17.66,17.66,0,0,1-23,9.29A18.35,18.35,0,0,1,485.9,259a18,18,0,0,1-3.8-5.64,17.09,17.09,0,0,1-1.37-6.84,17.73,17.73,0,0,1,10.81-16.4,17.28,17.28,0,0,1,6.84-1.38,17.73,17.73,0,0,1,17.79,17.75" class="cls-3_1582299698844" vector-effect="non-scaling-stroke"/><path d="M168,227.44a27.77,27.77,0,0,0-8.43-5.78,26.49,26.49,0,0,0-29.31,5.67,27.51,27.51,0,0,0-5.58,29.6,26,26,0,0,0,5.76,8.4,26.71,26.71,0,0,0,18.77,7.52,22.27,22.27,0,0,0,11.21-3,35.33,35.33,0,0,0,6.47-4.73v3.1A4.69,4.69,0,0,0,171,273a4.54,4.54,0,0,0,4.95-4.5V246.34a25.72,25.72,0,0,0-2.16-10.41,28.22,28.22,0,0,0-5.8-8.49m-1.79,18.93a19.89,19.89,0,0,1-1.64,7.12,17.66,17.66,0,0,1-23,9.29A18.35,18.35,0,0,1,135.9,259a18,18,0,0,1-3.8-5.64,17.09,17.09,0,0,1-1.37-6.84,17.73,17.73,0,0,1,10.81-16.4,17.28,17.28,0,0,1,6.84-1.38,17.73,17.73,0,0,1,17.79,17.75" class="cls-3_1582299698844" vector-effect="non-scaling-stroke"/><path d="M388.17,287.65a4.56,4.56,0,0,0,6.39,0,4.32,4.32,0,0,0,1.3-3.19V265a37.19,37.19,0,0,0,6.39,4.61,24,24,0,0,0,11.3,3.16,24.45,24.45,0,0,0,10.1-2.16,27.69,27.69,0,0,0,14.14-14.19,26,26,0,0,0,.06-20.54,27.6,27.6,0,0,0-5.66-8.38,26.41,26.41,0,0,0-8.4-5.73,27.36,27.36,0,0,0-20.66-.1,26.36,26.36,0,0,0-7.27,4.4v-2a4.51,4.51,0,1,0-9-.45,3.38,3.38,0,0,0,0,.45v60.43a4.36,4.36,0,0,0,1.31,3.19m7.59-41.79a18.36,18.36,0,0,1,11-16.86,17.69,17.69,0,0,1,19.62,3.93,18.2,18.2,0,0,1,3.84,5.82,17.82,17.82,0,0,1,1.39,7.06,18.53,18.53,0,0,1-5.23,13,18,18,0,0,1-5.73,3.93,17.48,17.48,0,0,1-7,1.43,17.13,17.13,0,0,1-12.32-5.2,18.64,18.64,0,0,1-3.85-5.81,21.6,21.6,0,0,1-1.66-7.35" class="cls-3_1582299698844" vector-effect="non-scaling-stroke"/><path d="M645.49,235.66a29.23,29.23,0,0,0-5.87-8.47,27.73,27.73,0,0,0-8.5-5.78A25.11,25.11,0,0,0,621,219.3h0a29.36,29.36,0,0,0-10.69,2.37,28.07,28.07,0,0,0-8.55,5.78,26.8,26.8,0,0,0-5.68,8.46,26.51,26.51,0,0,0-2.06,10.4A26.88,26.88,0,0,0,596.12,257a25.9,25.9,0,0,0,5.8,8.46A26.87,26.87,0,0,0,620.8,273a30.27,30.27,0,0,0,10.58-1.73,21.06,21.06,0,0,0,8.31-5.85,4.56,4.56,0,0,0-6.45-6.46,18.64,18.64,0,0,1-5.65,3.71,17.88,17.88,0,0,1-13.07.19,21.58,21.58,0,0,1-10-8.51,17.26,17.26,0,0,1-.68-14.63h0a17.23,17.23,0,0,1,1.28-2.8,17.44,17.44,0,0,1,3.93-4.71,19.9,19.9,0,0,1,5.4-3.15,17.87,17.87,0,0,1,12.64,0,19.9,19.9,0,0,1,5.4,3.15,18.5,18.5,0,0,1,5.86,9H615.45a4.91,4.91,0,0,0,0,9.81h27.71a4.71,4.71,0,0,0,3-1.18,4.21,4.21,0,0,0,1.53-3.44A24.75,24.75,0,0,0,645.49,236" class="cls-3_1582299698844" vector-effect="non-scaling-stroke"/><path d="M337.29,235.66a29.23,29.23,0,0,0-5.87-8.47,27.65,27.65,0,0,0-8.51-5.78,25,25,0,0,0-10.13-2.11h0a29.36,29.36,0,0,0-10.69,2.37,27.83,27.83,0,0,0-8.55,5.78A27.23,27.23,0,0,0,287.92,257a26,26,0,0,0,5.79,8.46A26.91,26.91,0,0,0,312.6,273a30.18,30.18,0,0,0,10.57-1.73,21.1,21.1,0,0,0,8.32-5.85A4.56,4.56,0,0,0,325,259a18.57,18.57,0,0,1-5.66,3.71,17.85,17.85,0,0,1-13.06.19,21.58,21.58,0,0,1-10-8.51,17.3,17.3,0,0,1-.69-14.63h0a19.12,19.12,0,0,1,1.28-2.8,17.48,17.48,0,0,1,3.94-4.71,19.75,19.75,0,0,1,5.4-3.15,17.87,17.87,0,0,1,12.64,0,19.9,19.9,0,0,1,5.4,3.15,18.5,18.5,0,0,1,5.86,9H307.25a4.91,4.91,0,0,0,0,9.81H335a4.71,4.71,0,0,0,3-1.18,4.21,4.21,0,0,0,1.53-3.44A24.9,24.9,0,0,0,337.29,236" class="cls-3_1582299698844" vector-effect="non-scaling-stroke"/><path d="M109.36,231.32a18.58,18.58,0,0,0-3.73-5.7A17.42,17.42,0,0,0,93,220.34a19.85,19.85,0,0,0-9,2.16,21.14,21.14,0,0,0-6.2,4.67,17.51,17.51,0,0,0-5.32-4.65,17.21,17.21,0,0,0-8.63-2.18,15,15,0,0,0-7.22,1.81,19.33,19.33,0,0,0-3.76,2.65v-.91a4.12,4.12,0,0,0-.65-2.32,4.57,4.57,0,0,0-7.13-.84A4.36,4.36,0,0,0,43.73,224V268.4a4.55,4.55,0,0,0,1.8,3.7,4.33,4.33,0,0,0,2.26.91,4.6,4.6,0,0,0,5.1-4.61V238.83a8,8,0,0,1,.7-3.37A10.09,10.09,0,0,1,56,232.21a11.09,11.09,0,0,1,3.25-2.06,9.91,9.91,0,0,1,7.34-.07,9.15,9.15,0,0,1,2.88,1.86,9.39,9.39,0,0,1,2,2.81,9.71,9.71,0,0,1,.83,3.62v29.19a4.62,4.62,0,0,0,4.16,4.59,4.4,4.4,0,0,0,3.71-1.31,4.52,4.52,0,0,0,1.29-3.28V239a7.68,7.68,0,0,1,.46-2.77,10.3,10.3,0,0,1,2.77-4.06A12.12,12.12,0,0,1,88.07,230a10.12,10.12,0,0,1,7.72-.08,9.87,9.87,0,0,1,3.1,2,9.61,9.61,0,0,1,2.09,3,9.18,9.18,0,0,1,.77,3.75v28.89a4.58,4.58,0,1,0,9.16,0V238.76a2.86,2.86,0,0,0-.06-.63A19.16,19.16,0,0,0,109.36,231.32Z" class="cls-3_1582299698844" vector-effect="non-scaling-stroke"/><path d="M220.84,220.29h-.43a26.33,26.33,0,0,0-11.4,2.52,28.15,28.15,0,0,0-7.08,4.8V224.8a4.48,4.48,0,0,0-1.24-3.16,4.22,4.22,0,0,0-3.19-1.35,4.41,4.41,0,0,0-3.18,1.31,4.37,4.37,0,0,0-1.35,3.2v43.68a4.38,4.38,0,0,0,1.35,3.24A4.44,4.44,0,0,0,198,273a4,4,0,0,0,2.18-.91,4.53,4.53,0,0,0,1.71-3.62V248.11a18.48,18.48,0,0,1,1.48-7.37,19.62,19.62,0,0,1,4-6,18.75,18.75,0,0,1,5.88-4,17.83,17.83,0,0,1,7.18-1.46h.37A4.63,4.63,0,0,0,224.1,228a4.24,4.24,0,0,0,1.38-3.27,4.38,4.38,0,0,0-1.23-3.17A4.54,4.54,0,0,0,220.84,220.29Z" class="cls-3_1582299698844" vector-effect="non-scaling-stroke"/><path d="M260.16,242.34l14.23-13.58a4.09,4.09,0,0,0,1.33-3,4.19,4.19,0,0,0-.93-2.78h0l-.3-.32a4.28,4.28,0,0,0-3-1.41,4,4,0,0,0-3.13,1.27l-21.82,21.08v-36a4.08,4.08,0,0,0-1.2-3,4,4,0,0,0-2.76-1.2,4.4,4.4,0,0,0-3.19,1.23,4,4,0,0,0-1.23,3v60.88a4,4,0,0,0,1.28,3,4.12,4.12,0,0,0,3,1.23,4,4,0,0,0,2.9-1.21,4.09,4.09,0,0,0,1.21-3V255.28l7.07-6.71L268.37,271a4.14,4.14,0,0,0,2.86,2,4.92,4.92,0,0,0,.84.07,4.44,4.44,0,0,0,4.32-3.54,4.4,4.4,0,0,0-.66-3.42Z" class="cls-3_1582299698844" vector-effect="non-scaling-stroke"/><path d="M460,204.4a4.64,4.64,0,0,0-6.29,0,4.19,4.19,0,0,0-1.33,3.16v61.08a4.16,4.16,0,0,0,1.32,3.12,4.4,4.4,0,0,0,3.16,1.27,4.36,4.36,0,0,0,3.15-1.27,4.16,4.16,0,0,0,1.32-3.12V207.56A4.19,4.19,0,0,0,460,204.4Z" class="cls-3_1582299698844" vector-effect="non-scaling-stroke"/></g></svg>