<svg version="1.2" xmlns="http://www.w3.org/2000/svg" xmlns:xlink="http://www.w3.org/1999/xlink" overflow="visible" preserveAspectRatio="none" viewBox="0 0 578 514" xml:space="preserve" y="0px" x="0px" id="Layer_1_1574852472155" width="34" height="30.222222222222"><g transform="translate(1, 1)"><g>
	<path d="M512,28.4H64c-35.3,0-64,28.7-64,64V448c0,35.3,28.7,64,64,64h448c35.3,0,64-28.7,64-64V92.4C576,57.1,547.3,28.4,512,28.4   z M544,448c0,17.6-14.4,32-32,32H320h-16h-31.8H272H112H80H66.3H64c-17.6,0-32-14.4-32-32V156.4h512V448z M544,124.4H32v-32   c0-17.6,14.4-32,32-32h448c17.6,0,32,14.4,32,32V124.4z" vector-effect="non-scaling-stroke" style="fill: rgb(56, 182, 160);"/>
	<path d="M117.4,281.6c24.6,0,44.6-20,44.6-44.6c0-24.6-20-44.6-44.6-44.6s-44.6,20-44.6,44.6C72.8,261.6,92.8,281.6,117.4,281.6z    M95.5,237c0-12.1,9.8-21.9,21.9-21.9s21.9,9.8,21.9,21.9c0,12.1-9.8,21.9-21.9,21.9S95.5,249.1,95.5,237z" vector-effect="non-scaling-stroke" style="fill: rgb(56, 182, 160);"/>
	<path d="M235.3,303.9h241c16.8,0,30.5-13.7,30.5-30.5v-50.8c0-16.8-13.7-30.5-30.5-30.5h-241c-16.8,0-30.5,13.7-30.5,30.5v50.8   C204.8,290.2,218.5,303.9,235.3,303.9z M237.8,225h236.1v45.9H237.8V225z" vector-effect="non-scaling-stroke" style="fill: rgb(56, 182, 160);"/>
	<path d="M117.4,424.6c24.6,0,44.6-20,44.6-44.6s-20-44.6-44.6-44.6s-44.6,20-44.6,44.6S92.8,424.6,117.4,424.6z M95.5,380   c0-12.1,9.8-21.9,21.9-21.9s21.9,9.8,21.9,21.9s-9.8,21.9-21.9,21.9S95.5,392.1,95.5,380z" vector-effect="non-scaling-stroke" style="fill: rgb(56, 182, 160);"/>
	<path d="M235.3,448.5h241c16.8,0,30.5-13.7,30.5-30.5v-52.4c0-16.8-13.7-30.5-30.5-30.5h-241c-16.8,0-30.5,13.7-30.5,30.5V418   C204.8,434.8,218.5,448.5,235.3,448.5z M237.8,368h236.1v47.5H237.8V368z" vector-effect="non-scaling-stroke" style="fill: rgb(56, 182, 160);"/>
</g></g></svg>