<svg version="1.2" xmlns="http://www.w3.org/2000/svg" xmlns:xlink="http://www.w3.org/1999/xlink" overflow="visible" preserveAspectRatio="none" viewBox="0 0 322 514" xml:space="preserve" y="0px" x="0px" id="Layer_1_1620302945703" width="8.75" height="14"><g transform="translate(1, 1)"><style type="text/css">
	.st0_1620302945703{fill:#394042;}
</style><path d="M288,288H32c-28.4,0-42.8,34.5-22.6,54.6l128,128c12.5,12.5,32.8,12.5,45.3,0l128-128  C330.7,322.5,316.4,288,288,288z M160,448L32,320h256L160,448z M32,224h256c28.4,0,42.8-34.5,22.6-54.6l-128-128  c-12.5-12.5-32.8-12.5-45.3,0l-128,128C-10.7,189.5,3.6,224,32,224z M160,64l128,128H32L160,64z" class="st0_1620302945703" vector-effect="non-scaling-stroke" style="fill: rgb(115, 115, 148);"/></g></svg>