<svg version="1.2" xmlns="http://www.w3.org/2000/svg" xmlns:xlink="http://www.w3.org/1999/xlink" overflow="visible" preserveAspectRatio="none" viewBox="0 0 322 514" xml:space="preserve" y="0px" x="0px" id="Layer_1_1620302945702" width="10" height="16"><g transform="translate(1, 1)"><style type="text/css">
	.st0_1620302945702{fill:#394042;}
</style><path d="M193.9,256l102.6-102.6l21.1-21.1c3.1-3.1,3.1-8.2,0-11.3L295,98.4c-3.1-3.1-8.2-3.1-11.3,0L160,222.1  L36.3,98.3c-3.1-3.1-8.2-3.1-11.3,0L2.3,121c-3.1,3.1-3.1,8.2,0,11.3L126.1,256L2.3,379.7c-3.1,3.1-3.1,8.2,0,11.3L25,413.6  c3.1,3.1,8.2,3.1,11.3,0L160,289.9l102.6,102.6l21.1,21.1c3.1,3.1,8.2,3.1,11.3,0l22.6-22.6c3.1-3.1,3.1-8.2,0-11.3L193.9,256z" class="st0_1620302945702" vector-effect="non-scaling-stroke" style="fill: rgb(115, 115, 148);"/></g></svg>